<svg width="512" height="512" viewBox="0 0 512 512" fill="none" xmlns="http://www.w3.org/2000/svg">
<circle cx="256" cy="256" r="256" fill="white"/>
<line x1="231" y1="119" x2="231" y2="419" stroke="black" stroke-width="15"/>
<line x1="408.5" y1="126.5" x2="108.5" y2="126.5" stroke="black" stroke-width="15"/>
<line x1="291" y1="119" x2="291" y2="419" stroke="black" stroke-width="15"/>
<path d="M218.5 269C218.5 282.059 211.615 294.396 199.47 303.707C187.317 313.023 170.206 319 151 319C131.794 319 114.683 313.023 102.53 303.707C90.3854 294.396 83.5 282.059 83.5 269C83.5 255.941 90.3854 243.604 102.53 234.293C114.683 224.977 131.794 219 151 219C170.206 219 187.317 224.977 199.47 234.293C211.615 243.604 218.5 255.941 218.5 269Z" stroke="black" stroke-width="15"/>
<path d="M428.5 269C428.5 282.059 421.615 294.396 409.47 303.707C397.317 313.023 380.206 319 361 319C341.794 319 324.683 313.023 312.53 303.707C300.385 294.396 293.5 282.059 293.5 269C293.5 255.941 300.385 243.604 312.53 234.293C324.683 224.977 341.794 219 361 219C380.206 219 397.317 224.977 409.47 234.293C421.615 243.604 428.5 255.941 428.5 269Z" stroke="black" stroke-width="15"/>
<line x1="109.038" y1="230.296" x2="194.796" y2="298.462" stroke="black" stroke-width="15" stroke-linecap="round"/>
</svg>
