<svg width="336" height="135" viewBox="0 0 336 135" fill="none" xmlns="http://www.w3.org/2000/svg">
<line x1="62" y1="7" x2="62" y2="127" stroke="black" stroke-width="6"/>
<line x1="133" y1="10" x2="13" y2="9.99999" stroke="black" stroke-width="6"/>
<line x1="86" y1="7" x2="86" y2="127" stroke="black" stroke-width="6"/>
<path d="M57 67C57 72.2235 54.2459 77.1582 49.3879 80.8826C44.527 84.6093 37.6823 87 30 87C22.3177 87 15.473 84.6093 10.6121 80.8826C5.75415 77.1582 3 72.2235 3 67C3 61.7765 5.75415 56.8418 10.6121 53.1174C15.473 49.3907 22.3177 47 30 47C37.6823 47 44.527 49.3907 49.3879 53.1174C54.2459 56.8418 57 61.7765 57 67Z" stroke="black" stroke-width="6"/>
<path d="M141 67C141 72.2235 138.246 77.1582 133.388 80.8826C128.527 84.6093 121.682 87 114 87C106.318 87 99.473 84.6093 94.6121 80.8826C89.7541 77.1582 87 72.2235 87 67C87 61.7765 89.7541 56.8418 94.6121 53.1174C99.473 49.3907 106.318 47 114 47C121.682 47 128.527 49.3907 133.388 53.1174C138.246 56.8418 141 61.7765 141 67Z" stroke="black" stroke-width="6"/>
<line x1="13.2152" y1="51.5183" x2="47.5183" y2="78.7848" stroke="black" stroke-width="6" stroke-linecap="round"/>
<path d="M160.094 11.071H149.946V7.502H174.327V11.071H164.179V37H160.094V11.071ZM176.319 7.502H180.404V20.144H196.486V7.502H200.571V37H196.486V23.713H180.404V37H176.319V7.502ZM204.986 7.502H227.69V11.071H209.071V20.144H225.798V23.713H209.071V33.431H227.948V37H204.986V7.502ZM152.397 52.502H166.63C169.095 52.502 171.073 53.1613 172.564 54.48C174.083 55.7987 174.843 57.5473 174.843 59.726C174.843 61.3887 174.384 62.822 173.467 64.026C172.55 65.23 171.374 66.0613 169.941 66.52V66.692C171.69 67.0933 173.08 67.9247 174.112 69.186C175.144 70.4473 175.66 72.11 175.66 74.174C175.66 76.8113 174.829 78.775 173.166 80.065C171.532 81.355 169.353 82 166.63 82H152.397V52.502ZM165.813 65.101C167.275 65.101 168.45 64.6853 169.339 63.854C170.228 62.994 170.672 61.8903 170.672 60.543C170.672 59.0523 170.271 57.9343 169.468 57.189C168.665 56.4437 167.562 56.071 166.157 56.071H156.482V65.101H165.813ZM166.544 78.431C169.841 78.431 171.489 76.84 171.489 73.658C171.489 70.3327 169.74 68.67 166.243 68.67H156.482V78.431H166.544ZM187.055 52.502H192.258L203.696 82H199.353L196.386 74.131H182.712L179.831 82H175.617L187.055 52.502ZM195.053 70.562L191.613 61.36L189.635 56.028H189.42L187.485 61.274L184.045 70.562H195.053ZM215.907 82.516C212.324 82.516 209.4 81.7993 207.135 80.366C204.871 78.9327 203.738 76.6967 203.738 73.658L203.781 72.798H207.823C207.766 73.1993 207.737 73.5003 207.737 73.701C207.737 75.4497 208.454 76.7827 209.887 77.7C211.349 78.5887 213.284 79.033 215.692 79.033C218.387 79.033 220.451 78.6173 221.884 77.786C223.318 76.926 224.034 75.7077 224.034 74.131C224.034 73.0703 223.662 72.196 222.916 71.508C222.171 70.7913 221.225 70.2323 220.078 69.831C218.96 69.4297 217.441 68.9853 215.52 68.498C213.141 67.896 211.22 67.3227 209.758 66.778C208.296 66.2047 207.049 65.3733 206.017 64.284C204.985 63.166 204.469 61.704 204.469 59.898C204.469 57.318 205.544 55.3543 207.694 54.007C209.844 52.6597 212.596 51.986 215.95 51.986C219.304 51.986 222.028 52.674 224.12 54.05C226.213 55.3973 227.259 57.4757 227.259 60.285V60.801H223.26V60.156C223.26 58.694 222.587 57.5473 221.239 56.716C219.921 55.8847 218.201 55.469 216.079 55.469C213.815 55.469 211.994 55.813 210.618 56.501C209.271 57.189 208.597 58.221 208.597 59.597C208.597 60.6003 208.956 61.4173 209.672 62.048C210.418 62.6787 211.321 63.1947 212.381 63.596C213.471 63.9687 214.976 64.3987 216.896 64.886C219.276 65.488 221.211 66.0757 222.701 66.649C224.221 67.2223 225.496 68.068 226.528 69.186C227.589 70.2753 228.119 71.7087 228.119 73.486C228.119 76.6393 227.016 78.9327 224.808 80.366C222.63 81.7993 219.663 82.516 215.907 82.516ZM231.903 52.502H235.988V82H231.903V52.502ZM253.933 82.516C249.174 82.516 245.591 81.2547 243.183 78.732C240.775 76.1807 239.571 72.3537 239.571 67.251C239.571 62.1483 240.775 58.3357 243.183 55.813C245.591 53.2617 249.174 51.986 253.933 51.986C257.774 51.986 260.841 52.9463 263.135 54.867C265.457 56.759 266.618 59.5253 266.618 63.166H262.447C262.447 60.6433 261.687 58.737 260.168 57.447C258.677 56.1283 256.599 55.469 253.933 55.469C250.464 55.469 247.913 56.3863 246.279 58.221C244.645 60.0557 243.813 63.037 243.785 67.165V67.251C243.785 71.4077 244.602 74.4177 246.236 76.281C247.87 78.1157 250.435 79.033 253.933 79.033C256.656 79.033 258.777 78.388 260.297 77.098C261.845 75.808 262.619 73.916 262.619 71.422H266.618C266.618 75.0913 265.471 77.8577 263.178 79.721C260.884 81.5843 257.803 82.516 253.933 82.516ZM280.493 82.516C276.91 82.516 273.986 81.7993 271.721 80.366C269.456 78.9327 268.324 76.6967 268.324 73.658L268.367 72.798H272.409C272.352 73.1993 272.323 73.5003 272.323 73.701C272.323 75.4497 273.04 76.7827 274.473 77.7C275.935 78.5887 277.87 79.033 280.278 79.033C282.973 79.033 285.037 78.6173 286.47 77.786C287.903 76.926 288.62 75.7077 288.62 74.131C288.62 73.0703 288.247 72.196 287.502 71.508C286.757 70.7913 285.811 70.2323 284.664 69.831C283.546 69.4297 282.027 68.9853 280.106 68.498C277.727 67.896 275.806 67.3227 274.344 66.778C272.882 66.2047 271.635 65.3733 270.603 64.284C269.571 63.166 269.055 61.704 269.055 59.898C269.055 57.318 270.13 55.3543 272.28 54.007C274.43 52.6597 277.182 51.986 280.536 51.986C283.89 51.986 286.613 52.674 288.706 54.05C290.799 55.3973 291.845 57.4757 291.845 60.285V60.801H287.846V60.156C287.846 58.694 287.172 57.5473 285.825 56.716C284.506 55.8847 282.786 55.469 280.665 55.469C278.4 55.469 276.58 55.813 275.204 56.501C273.857 57.189 273.183 58.221 273.183 59.597C273.183 60.6003 273.541 61.4173 274.258 62.048C275.003 62.6787 275.906 63.1947 276.967 63.596C278.056 63.9687 279.561 64.3987 281.482 64.886C283.861 65.488 285.796 66.0757 287.287 66.649C288.806 67.2223 290.082 68.068 291.114 69.186C292.175 70.2753 292.705 71.7087 292.705 73.486C292.705 76.6393 291.601 78.9327 289.394 80.366C287.215 81.7993 284.248 82.516 280.493 82.516ZM152.397 97.502H166.759C169.712 97.502 171.976 98.319 173.553 99.953C175.13 101.587 175.918 103.766 175.918 106.489C175.918 109.27 175.087 111.506 173.424 113.197C171.79 114.86 169.568 115.691 166.759 115.691H156.482V127H152.397V97.502ZM166.544 112.122C168.149 112.122 169.425 111.62 170.371 110.617C171.317 109.614 171.79 108.252 171.79 106.532C171.79 104.783 171.346 103.436 170.457 102.49C169.568 101.544 168.264 101.071 166.544 101.071H156.482V112.122H166.544ZM178.713 97.502H194.064C197.016 97.502 199.281 98.2617 200.858 99.781C202.434 101.3 203.223 103.336 203.223 105.887C203.223 107.894 202.735 109.628 201.761 111.09C200.815 112.552 199.496 113.598 197.805 114.229L204.599 127H200.041L193.634 114.831H182.798V127H178.713V97.502ZM193.849 111.262C195.454 111.262 196.73 110.789 197.676 109.843C198.622 108.897 199.095 107.593 199.095 105.93C199.095 104.382 198.65 103.192 197.762 102.361C196.873 101.501 195.569 101.071 193.849 101.071H182.798V111.262H193.849ZM220.71 127.516C216.037 127.516 212.411 126.24 209.831 123.689C207.28 121.109 206.004 117.296 206.004 112.251C206.004 107.206 207.28 103.407 209.831 100.856C212.411 98.276 216.037 96.986 220.71 96.986C225.411 96.986 229.038 98.276 231.589 100.856C234.169 103.407 235.459 107.206 235.459 112.251C235.459 117.268 234.169 121.066 231.589 123.646C229.038 126.226 225.411 127.516 220.71 127.516ZM220.71 124.033C224.121 124.033 226.73 123.116 228.536 121.281C230.342 119.418 231.245 116.465 231.245 112.423V112.251C231.216 108.152 230.299 105.17 228.493 103.307C226.687 101.415 224.093 100.469 220.71 100.469C217.356 100.469 214.776 101.415 212.97 103.307C211.164 105.17 210.247 108.152 210.218 112.251V112.423C210.218 116.465 211.121 119.418 212.927 121.281C214.733 123.116 217.327 124.033 220.71 124.033ZM244.761 127.516C242.066 127.516 239.988 126.799 238.526 125.366C237.064 123.933 236.333 121.854 236.333 119.131V118.056H240.418V119.346C240.418 120.894 240.79 122.069 241.536 122.872C242.281 123.646 243.356 124.033 244.761 124.033C246.194 124.033 247.283 123.589 248.029 122.7C248.774 121.783 249.147 120.435 249.147 118.658V97.502H253.232V118.443C253.232 121.453 252.501 123.718 251.039 125.237C249.577 126.756 247.484 127.516 244.761 127.516ZM257.618 97.502H280.322V101.071H261.703V110.144H278.43V113.713H261.703V123.431H280.58V127H257.618V97.502ZM296.919 127.516C292.161 127.516 288.577 126.255 286.169 123.732C283.761 121.181 282.557 117.354 282.557 112.251C282.557 107.148 283.761 103.336 286.169 100.813C288.577 98.2617 292.161 96.986 296.919 96.986C300.761 96.986 303.828 97.9463 306.121 99.867C308.443 101.759 309.604 104.525 309.604 108.166H305.433C305.433 105.643 304.674 103.737 303.154 102.447C301.664 101.128 299.585 100.469 296.919 100.469C293.451 100.469 290.899 101.386 289.265 103.221C287.631 105.056 286.8 108.037 286.771 112.165V112.251C286.771 116.408 287.588 119.418 289.222 121.281C290.856 123.116 293.422 124.033 296.919 124.033C299.643 124.033 301.764 123.388 303.283 122.098C304.831 120.808 305.605 118.916 305.605 116.422H309.604C309.604 120.091 308.458 122.858 306.164 124.721C303.871 126.584 300.789 127.516 296.919 127.516ZM320.298 101.071H310.15V97.502H334.531V101.071H324.383V127H320.298V101.071Z" fill="black"/>
</svg>
