<svg width="32" height="32" viewBox="0 0 64 64" fill="none" xmlns="http://www.w3.org/2000/svg">
<path d="M53.3883 55.6234H10.6124C5.03109 55.6234 0.490997 51.0833 0.490997 45.502V18.4974C0.490997 12.9168 5.03179 8.37598 10.6124 8.37598H53.3883C58.9689 8.37598 63.509 12.9168 63.509 18.4974V45.502C63.509 51.0833 58.9689 55.6234 53.3883 55.6234ZM10.6124 11.3357C6.66326 11.3357 3.45074 14.5482 3.45074 18.4974V45.502C3.45074 49.4511 6.66326 52.6643 10.6124 52.6643H53.3883C57.3374 52.6643 60.55 49.4511 60.55 45.502V18.4974C60.55 14.5482 57.3374 11.3357 53.3883 11.3357H10.6124V11.3357Z" fill="white"/>
<path d="M8.224 18.6381C15.789 26.0098 23.3539 33.3808 30.9189 40.7525C32.3291 42.1263 34.4934 39.9668 33.0811 38.5903C25.5161 31.2192 17.9512 23.8475 10.3862 16.4765C8.97602 15.102 6.8117 17.2622 8.224 18.6381Z" fill="white"/>
<path d="M33.0811 40.7526C40.6461 33.3816 48.211 26.0099 55.776 18.6389C57.1876 17.263 55.0247 15.1022 53.6138 16.4767C46.0488 23.8477 38.4839 31.2194 30.9189 38.5904C29.5073 39.9663 31.6702 42.1271 33.0811 40.7526Z" fill="white"/>
<path d="M55.6927 45.9703C50.6589 41.1964 45.6245 36.4231 40.5907 31.6492C39.163 30.2957 36.9973 32.4537 38.4285 33.8114C43.4623 38.5853 48.4967 43.3586 53.5304 48.1326C54.9582 49.486 57.1239 47.3273 55.6927 45.9703Z" fill="white"/>
<path d="M10.6061 48.132C15.6398 43.3581 20.6743 38.5848 25.708 33.8108C27.1385 32.4539 24.9742 30.2944 23.5458 31.6486C18.512 36.4226 13.4776 41.1959 8.44387 45.9698C7.01336 47.3268 9.17768 49.4869 10.6061 48.132Z" fill="white"/>
</svg>
